<mxfile host="app.diagrams.net" modified="2022-12-27T02:33:03.589Z" agent="5.0 (Macintosh; Intel Mac OS X 10_15_7) AppleWebKit/537.36 (KHTML, like Gecko) Chrome/108.0.0.0 Safari/537.36" etag="aW4O5PiaKCsHQcPsF0VW" version="20.7.4" type="github">
  <diagram id="Cd5y1kNHd57_tZJnAyKG" name="Page-1">
    <mxGraphModel dx="1050" dy="509" grid="1" gridSize="10" guides="1" tooltips="1" connect="1" arrows="1" fold="1" page="1" pageScale="1" pageWidth="827" pageHeight="1169" math="0" shadow="0">
      <root>
        <mxCell id="0" />
        <mxCell id="1" parent="0" />
        <mxCell id="iWle3xQhp5_1chdFoBKP-1" value="" style="rounded=0;whiteSpace=wrap;html=1;" parent="1" vertex="1">
          <mxGeometry x="290" y="140" width="400" height="460" as="geometry" />
        </mxCell>
        <mxCell id="iWle3xQhp5_1chdFoBKP-2" value="" style="rounded=0;whiteSpace=wrap;html=1;" parent="1" vertex="1">
          <mxGeometry x="770" y="140" width="170" height="460" as="geometry" />
        </mxCell>
        <mxCell id="iWle3xQhp5_1chdFoBKP-3" value="" style="rounded=0;whiteSpace=wrap;html=1;" parent="1" vertex="1">
          <mxGeometry x="70" y="140" width="190" height="460" as="geometry" />
        </mxCell>
        <mxCell id="iWle3xQhp5_1chdFoBKP-4" style="edgeStyle=orthogonalEdgeStyle;curved=1;orthogonalLoop=1;jettySize=auto;html=1;exitX=1;exitY=0.5;exitDx=0;exitDy=0;exitPerimeter=0;entryX=0;entryY=0.5;entryDx=0;entryDy=0;" parent="1" source="iWle3xQhp5_1chdFoBKP-5" target="iWle3xQhp5_1chdFoBKP-22" edge="1">
          <mxGeometry relative="1" as="geometry" />
        </mxCell>
        <mxCell id="iWle3xQhp5_1chdFoBKP-5" value="Amazon RDS" style="sketch=0;points=[[0,0,0],[0.25,0,0],[0.5,0,0],[0.75,0,0],[1,0,0],[0,1,0],[0.25,1,0],[0.5,1,0],[0.75,1,0],[1,1,0],[0,0.25,0],[0,0.5,0],[0,0.75,0],[1,0.25,0],[1,0.5,0],[1,0.75,0]];outlineConnect=0;fontColor=#232F3E;gradientColor=#4D72F3;gradientDirection=north;fillColor=#3334B9;strokeColor=#ffffff;dashed=0;verticalLabelPosition=bottom;verticalAlign=top;align=center;html=1;fontSize=12;fontStyle=0;aspect=fixed;shape=mxgraph.aws4.resourceIcon;resIcon=mxgraph.aws4.rds;" parent="1" vertex="1">
          <mxGeometry x="80" y="331" width="78" height="78" as="geometry" />
        </mxCell>
        <mxCell id="iWle3xQhp5_1chdFoBKP-6" value="Amazon Athena" style="sketch=0;points=[[0,0,0],[0.25,0,0],[0.5,0,0],[0.75,0,0],[1,0,0],[0,1,0],[0.25,1,0],[0.5,1,0],[0.75,1,0],[1,1,0],[0,0.25,0],[0,0.5,0],[0,0.75,0],[1,0.25,0],[1,0.5,0],[1,0.75,0]];outlineConnect=0;fontColor=#232F3E;gradientColor=#945DF2;gradientDirection=north;fillColor=#5A30B5;strokeColor=#ffffff;dashed=0;verticalLabelPosition=bottom;verticalAlign=top;align=center;html=1;fontSize=12;fontStyle=0;aspect=fixed;shape=mxgraph.aws4.resourceIcon;resIcon=mxgraph.aws4.athena;" parent="1" vertex="1">
          <mxGeometry x="816" y="210" width="78" height="78" as="geometry" />
        </mxCell>
        <mxCell id="iWle3xQhp5_1chdFoBKP-7" value="Amazon EMR&lt;br&gt;Trino" style="sketch=0;points=[[0,0,0],[0.25,0,0],[0.5,0,0],[0.75,0,0],[1,0,0],[0,1,0],[0.25,1,0],[0.5,1,0],[0.75,1,0],[1,1,0],[0,0.25,0],[0,0.5,0],[0,0.75,0],[1,0.25,0],[1,0.5,0],[1,0.75,0]];outlineConnect=0;fontColor=#232F3E;gradientColor=#945DF2;gradientDirection=north;fillColor=#5A30B5;strokeColor=#ffffff;dashed=0;verticalLabelPosition=bottom;verticalAlign=top;align=center;html=1;fontSize=12;fontStyle=0;aspect=fixed;shape=mxgraph.aws4.resourceIcon;resIcon=mxgraph.aws4.emr;" parent="1" vertex="1">
          <mxGeometry x="827" y="428.13" width="78" height="78" as="geometry" />
        </mxCell>
        <mxCell id="iWle3xQhp5_1chdFoBKP-8" value="Ingestion" style="rounded=1;whiteSpace=wrap;html=1;fillColor=#99CCFF;" parent="1" vertex="1">
          <mxGeometry x="70" y="140" width="190" height="40" as="geometry" />
        </mxCell>
        <mxCell id="iWle3xQhp5_1chdFoBKP-9" value="Processing" style="rounded=1;whiteSpace=wrap;html=1;fillColor=#99CCFF;" parent="1" vertex="1">
          <mxGeometry x="290" y="140" width="400" height="40" as="geometry" />
        </mxCell>
        <mxCell id="iWle3xQhp5_1chdFoBKP-10" style="edgeStyle=orthogonalEdgeStyle;curved=1;orthogonalLoop=1;jettySize=auto;html=1;entryX=0;entryY=0.25;entryDx=0;entryDy=0;entryPerimeter=0;dashed=1;startArrow=classic;startFill=1;" parent="1" source="iWle3xQhp5_1chdFoBKP-14" target="iWle3xQhp5_1chdFoBKP-6" edge="1">
          <mxGeometry relative="1" as="geometry" />
        </mxCell>
        <mxCell id="iWle3xQhp5_1chdFoBKP-11" value="metadata" style="edgeLabel;html=1;align=center;verticalAlign=middle;resizable=0;points=[];" parent="iWle3xQhp5_1chdFoBKP-10" vertex="1" connectable="0">
          <mxGeometry x="0.2327" y="-6" relative="1" as="geometry">
            <mxPoint y="1" as="offset" />
          </mxGeometry>
        </mxCell>
        <mxCell id="iWle3xQhp5_1chdFoBKP-12" style="edgeStyle=orthogonalEdgeStyle;curved=1;orthogonalLoop=1;jettySize=auto;html=1;entryX=0;entryY=0.25;entryDx=0;entryDy=0;entryPerimeter=0;dashed=1;startArrow=classic;startFill=1;" parent="1" source="iWle3xQhp5_1chdFoBKP-14" target="iWle3xQhp5_1chdFoBKP-7" edge="1">
          <mxGeometry relative="1" as="geometry" />
        </mxCell>
        <mxCell id="iWle3xQhp5_1chdFoBKP-13" value="metadata" style="edgeLabel;html=1;align=center;verticalAlign=middle;resizable=0;points=[];" parent="iWle3xQhp5_1chdFoBKP-12" vertex="1" connectable="0">
          <mxGeometry x="-0.1131" y="1" relative="1" as="geometry">
            <mxPoint x="-35" y="-41" as="offset" />
          </mxGeometry>
        </mxCell>
        <mxCell id="iWle3xQhp5_1chdFoBKP-14" value="AWS Glue &lt;br&gt;Data Catalog" style="sketch=0;outlineConnect=0;fontColor=#232F3E;gradientColor=none;fillColor=#4D27AA;strokeColor=none;dashed=0;verticalLabelPosition=bottom;verticalAlign=top;align=center;html=1;fontSize=12;fontStyle=0;aspect=fixed;pointerEvents=1;shape=mxgraph.aws4.glue_data_catalog;" parent="1" vertex="1">
          <mxGeometry x="610" y="228" width="72" height="78" as="geometry" />
        </mxCell>
        <mxCell id="iWle3xQhp5_1chdFoBKP-15" value="" style="rounded=0;whiteSpace=wrap;html=1;fillColor=#99CCFF;" parent="1" vertex="1">
          <mxGeometry x="300" y="200" width="280" height="380" as="geometry" />
        </mxCell>
        <mxCell id="iWle3xQhp5_1chdFoBKP-16" style="edgeStyle=orthogonalEdgeStyle;curved=1;orthogonalLoop=1;jettySize=auto;html=1;entryX=0;entryY=0.75;entryDx=0;entryDy=0;entryPerimeter=0;startArrow=classic;startFill=1;" parent="1" source="iWle3xQhp5_1chdFoBKP-20" target="iWle3xQhp5_1chdFoBKP-6" edge="1">
          <mxGeometry relative="1" as="geometry">
            <Array as="points">
              <mxPoint x="780" y="460" />
              <mxPoint x="780" y="269" />
            </Array>
          </mxGeometry>
        </mxCell>
        <mxCell id="iWle3xQhp5_1chdFoBKP-17" value="data" style="edgeLabel;html=1;align=center;verticalAlign=middle;resizable=0;points=[];" parent="iWle3xQhp5_1chdFoBKP-16" vertex="1" connectable="0">
          <mxGeometry x="-0.7539" y="12" relative="1" as="geometry">
            <mxPoint x="8" y="-39" as="offset" />
          </mxGeometry>
        </mxCell>
        <mxCell id="iWle3xQhp5_1chdFoBKP-18" style="edgeStyle=orthogonalEdgeStyle;curved=1;orthogonalLoop=1;jettySize=auto;html=1;entryX=0;entryY=0.75;entryDx=0;entryDy=0;entryPerimeter=0;startArrow=classic;startFill=1;" parent="1" source="iWle3xQhp5_1chdFoBKP-20" target="iWle3xQhp5_1chdFoBKP-7" edge="1">
          <mxGeometry relative="1" as="geometry" />
        </mxCell>
        <mxCell id="iWle3xQhp5_1chdFoBKP-19" value="data" style="edgeLabel;html=1;align=center;verticalAlign=middle;resizable=0;points=[];" parent="iWle3xQhp5_1chdFoBKP-18" vertex="1" connectable="0">
          <mxGeometry x="-0.5581" y="-2" relative="1" as="geometry">
            <mxPoint x="20" y="18" as="offset" />
          </mxGeometry>
        </mxCell>
        <mxCell id="iWle3xQhp5_1chdFoBKP-20" value="Amazon S3" style="outlineConnect=0;dashed=0;verticalLabelPosition=bottom;verticalAlign=top;align=center;html=1;shape=mxgraph.aws3.s3;fillColor=#E05243;gradientColor=none;" parent="1" vertex="1">
          <mxGeometry x="605.5" y="413.13" width="76.5" height="93" as="geometry" />
        </mxCell>
        <mxCell id="iWle3xQhp5_1chdFoBKP-21" value="Consumption" style="rounded=1;whiteSpace=wrap;html=1;fillColor=#99CCFF;" parent="1" vertex="1">
          <mxGeometry x="770" y="140" width="170" height="40" as="geometry" />
        </mxCell>
        <mxCell id="iWle3xQhp5_1chdFoBKP-22" value="binlog" style="rounded=0;whiteSpace=wrap;html=1;fillColor=#99CCFF;" parent="1" vertex="1">
          <mxGeometry x="190" y="351.75" width="60" height="36.5" as="geometry" />
        </mxCell>
        <mxCell id="iWle3xQhp5_1chdFoBKP-23" style="edgeStyle=orthogonalEdgeStyle;curved=1;orthogonalLoop=1;jettySize=auto;html=1;entryX=0;entryY=0.5;entryDx=0;entryDy=0;" parent="1" source="iWle3xQhp5_1chdFoBKP-35" edge="1">
          <mxGeometry relative="1" as="geometry">
            <mxPoint x="440" y="530" as="targetPoint" />
          </mxGeometry>
        </mxCell>
        <mxCell id="iWle3xQhp5_1chdFoBKP-24" value="Amazon EMR &lt;br&gt;Flink" style="sketch=0;points=[[0,0,0],[0.25,0,0],[0.5,0,0],[0.75,0,0],[1,0,0],[0,1,0],[0.25,1,0],[0.5,1,0],[0.75,1,0],[1,1,0],[0,0.25,0],[0,0.5,0],[0,0.75,0],[1,0.25,0],[1,0.5,0],[1,0.75,0]];outlineConnect=0;fontColor=#232F3E;gradientColor=#945DF2;gradientDirection=north;fillColor=#5A30B5;strokeColor=#ffffff;dashed=0;verticalLabelPosition=bottom;verticalAlign=top;align=center;html=1;fontSize=12;fontStyle=0;aspect=fixed;shape=mxgraph.aws4.resourceIcon;resIcon=mxgraph.aws4.emr;" parent="1" vertex="1">
          <mxGeometry x="300" y="200" width="78" height="78" as="geometry" />
        </mxCell>
        <mxCell id="iWle3xQhp5_1chdFoBKP-27" value="" style="rounded=0;whiteSpace=wrap;html=1;fillColor=#d5e8d4;strokeColor=#82b366;" parent="1" vertex="1">
          <mxGeometry x="390" y="220" width="180" height="124" as="geometry" />
        </mxCell>
        <mxCell id="iWle3xQhp5_1chdFoBKP-28" value="Catalog for&lt;br&gt;Hive" style="rounded=0;whiteSpace=wrap;html=1;fillColor=#f5f5f5;strokeColor=#666666;fontColor=#333333;" parent="1" vertex="1">
          <mxGeometry x="435" y="247" width="110" height="40" as="geometry" />
        </mxCell>
        <mxCell id="iWle3xQhp5_1chdFoBKP-29" value="" style="rounded=0;whiteSpace=wrap;html=1;fillColor=#fff2cc;strokeColor=#d6b656;" parent="1" vertex="1">
          <mxGeometry x="310" y="380" width="260" height="190" as="geometry" />
        </mxCell>
        <mxCell id="iWle3xQhp5_1chdFoBKP-33" style="edgeStyle=orthogonalEdgeStyle;curved=1;orthogonalLoop=1;jettySize=auto;html=1;entryX=0;entryY=0.5;entryDx=0;entryDy=0;strokeWidth=1;fontColor=default;startArrow=none;startFill=0;endArrow=classic;endFill=1;" parent="1" source="iWle3xQhp5_1chdFoBKP-35" target="iWle3xQhp5_1chdFoBKP-37" edge="1">
          <mxGeometry relative="1" as="geometry" />
        </mxCell>
        <mxCell id="iWle3xQhp5_1chdFoBKP-35" value="Flink CDC&lt;br&gt;Connector" style="rounded=0;whiteSpace=wrap;html=1;fillColor=#e1d5e7;strokeColor=#9673a6;" parent="1" vertex="1">
          <mxGeometry x="320" y="451.13" width="80" height="58.87" as="geometry" />
        </mxCell>
        <mxCell id="iWle3xQhp5_1chdFoBKP-36" style="edgeStyle=orthogonalEdgeStyle;curved=1;orthogonalLoop=1;jettySize=auto;html=1;exitX=1;exitY=0.5;exitDx=0;exitDy=0;strokeWidth=1;fontColor=default;startArrow=classic;startFill=1;endArrow=classic;endFill=1;" parent="1" source="iWle3xQhp5_1chdFoBKP-37" target="iWle3xQhp5_1chdFoBKP-20" edge="1">
          <mxGeometry relative="1" as="geometry" />
        </mxCell>
        <mxCell id="iWle3xQhp5_1chdFoBKP-37" value="Flink Iceberg Connector" style="rounded=0;whiteSpace=wrap;html=1;fillColor=#e1d5e7;strokeColor=#9673a6;" parent="1" vertex="1">
          <mxGeometry x="432.5" y="451.13" width="115" height="60" as="geometry" />
        </mxCell>
        <mxCell id="iWle3xQhp5_1chdFoBKP-38" style="edgeStyle=orthogonalEdgeStyle;orthogonalLoop=1;jettySize=auto;html=1;entryX=0;entryY=0.25;entryDx=0;entryDy=0;strokeWidth=1;fontColor=default;startArrow=none;startFill=0;endArrow=classic;endFill=1;curved=1;" parent="1" source="iWle3xQhp5_1chdFoBKP-22" target="iWle3xQhp5_1chdFoBKP-35" edge="1">
          <mxGeometry relative="1" as="geometry" />
        </mxCell>
        <mxCell id="iWle3xQhp5_1chdFoBKP-40" style="edgeStyle=orthogonalEdgeStyle;curved=1;orthogonalLoop=1;jettySize=auto;html=1;exitX=1;exitY=0.5;exitDx=0;exitDy=0;strokeWidth=1;fontColor=default;startArrow=classic;startFill=1;endArrow=classic;endFill=1;dashed=1;" parent="1" source="iWle3xQhp5_1chdFoBKP-28" target="iWle3xQhp5_1chdFoBKP-14" edge="1">
          <mxGeometry relative="1" as="geometry" />
        </mxCell>
        <mxCell id="FCLZu8Ytae7d9h3RZlWM-1" value="Catalog" style="rounded=0;whiteSpace=wrap;html=1;fillColor=#f5f5f5;strokeColor=#666666;fontColor=#333333;" vertex="1" parent="1">
          <mxGeometry x="390" y="220" width="70" height="20" as="geometry" />
        </mxCell>
        <mxCell id="FCLZu8Ytae7d9h3RZlWM-2" value="Connector" style="rounded=0;whiteSpace=wrap;html=1;fillColor=#f5f5f5;strokeColor=#666666;fontColor=#333333;" vertex="1" parent="1">
          <mxGeometry x="310" y="380" width="70" height="20" as="geometry" />
        </mxCell>
        <mxCell id="FCLZu8Ytae7d9h3RZlWM-4" style="edgeStyle=orthogonalEdgeStyle;curved=1;orthogonalLoop=1;jettySize=auto;html=1;entryX=0.5;entryY=0;entryDx=0;entryDy=0;dashed=1;startArrow=classic;startFill=1;" edge="1" parent="1" source="FCLZu8Ytae7d9h3RZlWM-3" target="iWle3xQhp5_1chdFoBKP-37">
          <mxGeometry relative="1" as="geometry" />
        </mxCell>
        <mxCell id="FCLZu8Ytae7d9h3RZlWM-5" value="metadata" style="edgeLabel;html=1;align=center;verticalAlign=middle;resizable=0;points=[];" vertex="1" connectable="0" parent="FCLZu8Ytae7d9h3RZlWM-4">
          <mxGeometry x="-0.2531" y="1" relative="1" as="geometry">
            <mxPoint as="offset" />
          </mxGeometry>
        </mxCell>
        <mxCell id="FCLZu8Ytae7d9h3RZlWM-3" value="Catalog for&lt;br&gt;Iceberg" style="rounded=0;whiteSpace=wrap;html=1;fillColor=#f5f5f5;strokeColor=#666666;fontColor=#333333;" vertex="1" parent="1">
          <mxGeometry x="435" y="300" width="110" height="40" as="geometry" />
        </mxCell>
        <mxCell id="iWle3xQhp5_1chdFoBKP-25" style="edgeStyle=orthogonalEdgeStyle;curved=1;orthogonalLoop=1;jettySize=auto;html=1;entryX=0.5;entryY=0;entryDx=0;entryDy=0;dashed=1;strokeWidth=1;fontColor=default;startArrow=classic;startFill=1;endArrow=classic;endFill=1;exitX=0;exitY=0.5;exitDx=0;exitDy=0;" parent="1" source="iWle3xQhp5_1chdFoBKP-28" target="iWle3xQhp5_1chdFoBKP-35" edge="1">
          <mxGeometry relative="1" as="geometry">
            <Array as="points">
              <mxPoint x="400" y="267" />
              <mxPoint x="400" y="451" />
            </Array>
          </mxGeometry>
        </mxCell>
        <mxCell id="iWle3xQhp5_1chdFoBKP-26" value="metadata" style="edgeLabel;html=1;align=center;verticalAlign=middle;resizable=0;points=[];fontColor=default;" parent="iWle3xQhp5_1chdFoBKP-25" vertex="1" connectable="0">
          <mxGeometry relative="1" as="geometry">
            <mxPoint as="offset" />
          </mxGeometry>
        </mxCell>
      </root>
    </mxGraphModel>
  </diagram>
</mxfile>
